<svg viewBox="0 0 500 500" fill="none" xmlns="http://www.w3.org/2000/svg">
  <path d="M494.708 303.752C517.755 441.505 408 489.248 248.208 473 93 483.248-4.292 423.752 5.70802 308.752 31 172 136.708 91.7524 248.208 123.752c149.5-18 223.454 42.248 246.5 180z" fill="#FF813A"/>
  <path d="M246 135l-14-5v-12l14-66 29 6-7 72-22 5z" fill="#341E1E" stroke="#8F8F8F"/>
  <path d="M163 250l44.163 35.75H105.838L121 234l42 16zM351 246l42-14 16.825 51.75H308.5L351 246zM162 343c-7 2.333-26.2 9.8-47 21l-7 17 7 18 30 19v-14h28v26l62 8v-34h38v34l62-8v-26h28v14l22-25 5-17-27-24-41-9v33h-27v-33l-45 9-45-9v33h-26v-33h-17z" fill="#341E1E"/>
</svg>
